<svg width="10" height="8" viewBox="0 0 10 8" fill="none" xmlns="http://www.w3.org/2000/svg">
<path d="M1.68394 3.27046C1.28103 2.89273 0.648193 2.91315 0.270463 3.31606C-0.107267 3.71897 -0.0868534 4.35181 0.316059 4.72954L1.68394 3.27046ZM4.2 7L3.51606 7.72954C3.71948 7.92024 3.99327 8.01735 4.27139 7.99745C4.54951 7.97754 4.80669 7.84242 4.98087 7.62469L4.2 7ZM9.78087 1.6247C10.1259 1.19343 10.056 0.564141 9.62469 0.219131C9.19343 -0.125878 8.56414 -0.055957 8.21913 0.375305L9.78087 1.6247ZM0.316059 4.72954L3.51606 7.72954L4.88394 6.27046L1.68394 3.27046L0.316059 4.72954ZM4.98087 7.62469L9.78087 1.6247L8.21913 0.375305L3.41913 6.37531L4.98087 7.62469Z" fill="#140E17"/>
</svg>
