<svg width="24" height="24" viewBox="0 0 24 24" fill="none" xmlns="http://www.w3.org/2000/svg">
<mask id="mask0_216_4407" style="mask-type:alpha" maskUnits="userSpaceOnUse" x="1" y="1" width="22" height="22">
<path fill-rule="evenodd" clip-rule="evenodd" d="M7 1C7.55228 1 8 1.44772 8 2V3.5H16V2C16 1.44772 16.4477 1 17 1C17.5523 1 18 1.44772 18 2V3.5H20C21.6569 3.5 23 4.84315 23 6.5V19.5C23 21.1569 21.6569 22.5 20 22.5H4C2.34315 22.5 1 21.1569 1 19.5V6.5C1 4.84315 2.34315 3.5 4 3.5H6V2C6 1.44772 6.44772 1 7 1ZM17 5.5H7H4C3.44772 5.5 3 5.94772 3 6.5V19.5C3 20.0523 3.44772 20.5 4 20.5H20C20.5523 20.5 21 20.0523 21 19.5V6.5C21 5.94772 20.5523 5.5 20 5.5H17ZM6 16.3C6 15.8582 6.35817 15.5 6.8 15.5H7.2C7.64183 15.5 8 15.8582 8 16.3V16.7C8 17.1418 7.64183 17.5 7.2 17.5H6.8C6.35817 17.5 6 17.1418 6 16.7V16.3ZM11.8 15.5C11.3582 15.5 11 15.8582 11 16.3V16.7C11 17.1418 11.3582 17.5 11.8 17.5H12.2C12.6418 17.5 13 17.1418 13 16.7V16.3C13 15.8582 12.6418 15.5 12.2 15.5H11.8ZM6 12.3C6 11.8582 6.35817 11.5 6.8 11.5H7.2C7.64183 11.5 8 11.8582 8 12.3V12.7C8 13.1418 7.64183 13.5 7.2 13.5H6.8C6.35817 13.5 6 13.1418 6 12.7V12.3ZM11.8 11.5C11.3582 11.5 11 11.8582 11 12.3V12.7C11 13.1418 11.3582 13.5 11.8 13.5H12.2C12.6418 13.5 13 13.1418 13 12.7V12.3C13 11.8582 12.6418 11.5 12.2 11.5H11.8ZM16 12.3C16 11.8582 16.3582 11.5 16.8 11.5H17.2C17.6418 11.5 18 11.8582 18 12.3V12.7C18 13.1418 17.6418 13.5 17.2 13.5H16.8C16.3582 13.5 16 13.1418 16 12.7V12.3ZM6.8 7.5C6.35817 7.5 6 7.85817 6 8.3V8.7C6 9.14183 6.35817 9.5 6.8 9.5H7.2C7.64183 9.5 8 9.14183 8 8.7V8.3C8 7.85817 7.64183 7.5 7.2 7.5H6.8ZM11 8.3C11 7.85817 11.3582 7.5 11.8 7.5H12.2C12.6418 7.5 13 7.85817 13 8.3V8.7C13 9.14183 12.6418 9.5 12.2 9.5H11.8C11.3582 9.5 11 9.14183 11 8.7V8.3ZM16.8 7.5C16.3582 7.5 16 7.85817 16 8.3V8.7C16 9.14183 16.3582 9.5 16.8 9.5H17.2C17.6418 9.5 18 9.14183 18 8.7V8.3C18 7.85817 17.6418 7.5 17.2 7.5H16.8Z" fill="#140E17"/>
</mask>
<g mask="url(#mask0_216_4407)">
<rect width="24" height="24" fill="#140E17"/>
</g>
</svg>
