<svg width="90" height="90" viewBox="0 0 90 90" fill="none" xmlns="http://www.w3.org/2000/svg">
<path d="M44.3933 1.09277C19.8948 1.09277 0 20.9288 0 45.3551C0 69.7813 19.8948 89.6174 44.3933 89.6174C68.8918 89.6174 88.7866 69.7813 88.7866 45.3551C88.7866 20.9288 68.8918 1.09277 44.3933 1.09277ZM45.051 18.0327C52.3402 18.0327 58.2045 23.9343 58.2045 31.1474C58.2045 38.4152 52.2854 44.2622 45.051 44.2622C37.7617 44.2622 31.8974 38.3605 31.8974 31.1474C31.8426 23.9343 37.7617 18.0327 45.051 18.0327ZM31.2397 66.7758C23.9505 66.7758 18.0862 60.8742 18.0862 53.6611C18.0862 46.3933 24.0053 40.5463 31.2397 40.5463C38.529 40.5463 44.3933 46.448 44.3933 53.6611C44.3933 60.9289 38.529 66.7758 31.2397 66.7758ZM57.6565 67.4316C50.3672 67.4316 44.5029 61.5299 44.5029 54.3168C44.5029 47.0491 50.422 41.2021 57.6565 41.2021C64.9458 41.2021 70.8101 47.1037 70.8101 54.3168C70.8101 61.5299 64.9458 67.4316 57.6565 67.4316Z" fill="white"/>
</svg>
