<svg width="41" height="40" viewBox="0 0 41 40" fill="none" xmlns="http://www.w3.org/2000/svg">
<mask id="mask0_256_1228" style="mask-type:alpha" maskUnits="userSpaceOnUse" x="5" y="5" width="31" height="30">
<path d="M5.5 20C5.5 22.5723 6.14699 24.9929 7.28764 27.1085C9.82117 31.8072 14.7881 35 20.5004 35C24.0551 35 27.3205 33.7637 29.891 31.6975C32.5341 29.5728 34.4421 26.5703 35.1723 23.1318C35.3874 22.1214 35.5003 21.0738 35.5003 19.9999C35.5003 19.0422 35.4105 18.1051 35.2382 17.1978H20.8301V23.1318H28.851C28.129 25.0588 26.7584 26.6684 25.0045 27.6969C23.6834 28.4725 22.1438 28.9168 20.5004 28.9168C16.6771 28.9168 13.4154 26.5102 12.1486 23.1294C11.7827 22.1561 11.5833 21.1011 11.5831 20C11.5831 18.9855 11.7529 18.0105 12.0645 17.1022C13.2678 13.6003 16.5897 11.0832 20.4996 11.0832C22.2311 11.0832 23.8474 11.5769 25.2147 12.4316L30.074 8.45328C27.4762 6.29645 24.1391 5 20.4996 5C14.7023 5 9.67363 8.2885 7.17719 13.1017C6.10492 15.1671 5.5 17.5127 5.5 20Z" fill="#A24DE8"/>
</mask>
<g mask="url(#mask0_256_1228)">
<rect x="0.5" width="40" height="40" fill="#A24DE8"/>
</g>
</svg>
