<svg width="258" height="34" viewBox="0 0 258 34" fill="none" xmlns="http://www.w3.org/2000/svg">
<g clip-path="url(#clip0_207_1334)">
<path d="M6.16756 31.4877C4.22376 30.4664 2.70379 29.0512 1.62227 27.242C0.540758 25.4329 0 23.3757 0 21.0851C0 18.7945 0.540758 16.7374 1.62227 14.9428C2.70379 13.1483 4.22376 11.7477 6.16756 10.741C8.12599 9.73428 10.3329 9.22363 12.8028 9.22363C15.3312 9.22363 17.5089 9.77805 19.3504 10.9015C21.1919 12.0249 22.4926 13.5714 23.2672 15.5556L17.2166 18.7362C16.2081 16.6644 14.7174 15.6286 12.7736 15.6286C11.3705 15.6286 10.2159 16.11 9.29519 17.0729C8.37444 18.0359 7.92137 19.3635 7.92137 21.0706C7.92137 22.7921 8.37444 24.149 9.29519 25.1265C10.2159 26.104 11.3705 26.5855 12.7736 26.5855C14.7174 26.5855 16.2081 25.5496 17.2166 23.4779L23.2672 26.6584C22.4926 28.6427 21.1919 30.1892 19.3504 31.3126C17.5089 32.436 15.3312 32.9904 12.8028 32.9904C10.3329 33.0196 8.12599 32.509 6.16756 31.4877Z" fill="white"/>
<path d="M50.758 1.05322H58.504V32.7131H50.6849L50.758 1.05322Z" fill="white"/>
<path d="M61.281 1.05322H69.1731L69.1439 32.7131H61.3249L61.281 1.05322Z" fill="white"/>
<path d="M95.7581 23.1715H79.5353C79.8715 24.3679 80.4999 25.2725 81.4499 25.9144C82.3999 26.5564 83.5837 26.8774 85.016 26.8774C86.0829 26.8774 87.0182 26.7169 87.7928 26.4105C88.5674 26.1041 89.3567 25.5934 90.1605 24.8785L94.2819 29.2993C92.1189 31.7941 88.9474 33.0342 84.7675 33.0342C82.166 33.0342 79.8715 32.5236 77.8984 31.5023C75.9254 30.481 74.3908 29.0658 73.3093 27.2567C72.2278 25.4476 71.687 23.3904 71.687 21.0998C71.687 18.8384 72.2132 16.7958 73.2654 15.0013C74.3177 13.2067 75.7792 11.7915 77.65 10.7702C79.5207 9.74892 81.6107 9.23828 83.9491 9.23828C86.1706 9.23828 88.1874 9.71975 89.9997 10.6681C91.812 11.6164 93.2443 12.9879 94.2965 14.7824C95.3488 16.577 95.875 18.7071 95.875 21.1727C95.875 21.2311 95.8457 21.8876 95.7581 23.1715ZM80.9676 16.0225C80.1638 16.7374 79.6376 17.7004 79.4184 18.9113H88.5528C88.3336 17.7004 87.8221 16.7374 87.0036 16.0225C86.1998 15.3076 85.1913 14.9575 83.9783 14.9575C82.7799 14.9575 81.7714 15.3222 80.9676 16.0225Z" fill="white"/>
<path d="M103.943 31.4877C101.999 30.4664 100.479 29.0512 99.3973 27.2421C98.3158 25.433 97.775 23.3758 97.775 21.0852C97.775 18.7946 98.3158 16.7374 99.3973 14.9429C100.479 13.1483 101.999 11.7477 103.943 10.741C105.886 9.73433 108.093 9.23828 110.563 9.23828C113.092 9.23828 115.269 9.79269 117.111 10.9161C118.952 12.0395 120.253 13.586 121.028 15.5703L114.977 18.7508C113.969 16.6791 112.478 15.6432 110.534 15.6432C109.131 15.6432 107.976 16.1247 107.056 17.0876C106.135 18.0505 105.682 19.3782 105.682 21.0852C105.682 22.8068 106.135 24.1636 107.056 25.1412C107.976 26.1187 109.131 26.6001 110.534 26.6001C112.478 26.6001 113.969 25.5643 114.977 23.4925L121.028 26.6731C120.253 28.6573 118.952 30.2038 117.111 31.3272C115.269 32.4507 113.092 33.0051 110.563 33.0051C108.093 33.0197 105.886 32.509 103.943 31.4877Z" fill="white"/>
<path d="M123.395 9.66121V1.05322H131.214L131.141 9.51531H136.256V16.2266L131.214 16.212V23.8571C131.214 24.6741 131.433 25.3161 131.857 25.7975C132.281 26.2644 132.851 26.4978 133.567 26.4978C134.473 26.4978 135.555 26.2644 136.242 25.7684L138.171 31.4146C137.513 31.8377 136.417 32.1587 135.467 32.3921C134.517 32.6256 133.509 32.7277 132.442 32.7277C129.533 32.7277 127.297 31.9982 125.734 30.5246C124.17 29.0511 123.38 26.8626 123.38 23.9446V17.102L123.395 9.66121Z" fill="white"/>
<path d="M176.93 9.61768L167.723 32.6404H159.655L150.477 9.61768H158.501L163.85 23.6823L169.491 9.61768H176.93Z" fill="white"/>
<path d="M200.592 23.1715H184.369C184.705 24.3679 185.334 25.2725 186.284 25.9144C187.234 26.5564 188.418 26.8774 189.85 26.8774C190.917 26.8774 191.852 26.7169 192.627 26.4105C193.416 26.1041 194.191 25.5935 194.994 24.8786L199.116 29.2993C196.953 31.7941 193.781 33.0343 189.601 33.0343C187 33.0343 184.705 32.5236 182.732 31.5023C180.759 30.481 179.225 29.0658 178.143 27.2567C177.062 25.4476 176.521 23.3904 176.521 21.0998C176.521 18.8384 177.047 16.7958 178.099 15.0013C179.152 13.2067 180.613 11.7915 182.484 10.7702C184.355 9.74892 186.445 9.23828 188.783 9.23828C191.005 9.23828 193.021 9.71975 194.834 10.6681C196.646 11.6164 198.078 12.9879 199.131 14.7824C200.183 16.577 200.709 18.7071 200.709 21.1727C200.709 21.2311 200.665 21.8876 200.592 23.1715ZM185.787 16.0225C184.983 16.7374 184.457 17.7004 184.238 18.9113H193.372C193.153 17.7004 192.641 16.7374 191.823 16.0225C191.019 15.3076 190.011 14.9575 188.798 14.9575C187.614 14.9575 186.605 15.3222 185.787 16.0225Z" fill="white"/>
<path d="M227.893 9.52979L223.026 23.1713H218.393L215.821 15.745L213.146 23.1713H208.513L203.646 9.52979H208.177L210.969 17.7876L213.862 9.52979H217.94L220.761 17.8606L223.654 9.52979H227.893Z" fill="white"/>
<path d="M241.806 17.5104L231.868 17.5688C232.073 18.2691 232.467 18.8089 233.052 19.1883C233.636 19.5676 234.367 19.7427 235.229 19.7427C235.887 19.7427 236.457 19.6406 236.925 19.4509C237.407 19.2612 237.889 18.9548 238.372 18.5317L240.915 21.1287C239.599 22.6169 237.656 23.361 235.113 23.3756C233.52 23.3901 232.116 23.0983 230.903 22.5002C229.69 21.902 228.74 21.0704 228.083 20.0053C227.41 18.9402 227.074 17.7147 227.06 16.3579C227.045 15.0156 227.367 13.8046 228.01 12.7396C228.653 11.6745 229.544 10.8283 230.684 10.2155C231.824 9.60277 233.11 9.29639 234.528 9.2818C235.887 9.26721 237.129 9.54441 238.24 10.0988C239.351 10.6532 240.242 11.4557 240.885 12.5207C241.543 13.5858 241.865 14.8405 241.879 16.2995C241.879 16.3579 241.85 16.7518 241.806 17.5104ZM232.716 13.3378C232.219 13.7609 231.912 14.3299 231.78 15.0594L237.378 15.0156C237.232 14.3007 236.925 13.7317 236.428 13.3086C235.931 12.9001 235.317 12.6812 234.572 12.6958C233.826 12.6958 233.213 12.9147 232.716 13.3378Z" fill="white"/>
<path d="M254.697 10.3908C255.72 10.9452 256.524 11.7477 257.123 12.7981C257.722 13.8486 258.014 15.0595 258.014 16.431C258.014 17.817 257.722 19.028 257.123 20.0784C256.524 21.1289 255.72 21.9459 254.697 22.5149C253.674 23.0839 252.548 23.3611 251.306 23.3611C249.508 23.3611 248.164 22.8359 247.272 21.8V23.1277H243.107V4.84668H247.506V10.9452C248.427 10.0261 249.698 9.55919 251.306 9.55919C252.548 9.55919 253.674 9.83639 254.697 10.3908ZM253.63 18.9696C254.302 18.3277 254.638 17.4523 254.638 16.3143C254.638 15.2054 254.302 14.3301 253.63 13.7027C252.958 13.0753 252.081 12.7544 251.028 12.7544C249.976 12.7544 249.099 13.0753 248.427 13.7027C247.755 14.3301 247.419 15.2054 247.419 16.3143C247.419 17.4377 247.755 18.3277 248.427 18.9696C249.099 19.6116 249.976 19.9325 251.028 19.9325C252.081 19.9325 252.958 19.6116 253.63 18.9696Z" fill="white"/>
<path d="M36.2454 9.28223C29.7125 9.28223 24.4072 14.5783 24.4072 21.1C24.4072 27.6216 29.7125 32.9177 36.2454 32.9177C42.7784 32.9177 48.0837 27.6216 48.0837 21.1C48.0837 14.5783 42.7784 9.28223 36.2454 9.28223ZM36.4208 13.8051C38.3646 13.8051 39.9284 15.3808 39.9284 17.3066C39.9284 19.2471 38.35 20.8082 36.4208 20.8082C34.477 20.8082 32.9132 19.2325 32.9132 17.3066C32.8986 15.3808 34.477 13.8051 36.4208 13.8051ZM32.7378 26.8192C30.794 26.8192 29.2302 25.2435 29.2302 23.3176C29.2302 21.3772 30.8086 19.8161 32.7378 19.8161C34.6816 19.8161 36.2454 21.3918 36.2454 23.3176C36.2454 25.2581 34.6816 26.8192 32.7378 26.8192ZM39.7823 26.9943C37.8385 26.9943 36.2747 25.4186 36.2747 23.4927C36.2747 21.5523 37.8531 19.9911 39.7823 19.9911C41.7261 19.9911 43.2899 21.5668 43.2899 23.4927C43.2899 25.4186 41.7261 26.9943 39.7823 26.9943Z" fill="white"/>
<path d="M152.581 25.8416C151.894 26.323 150.813 26.5711 149.907 26.5711C149.191 26.5711 148.621 26.3376 148.197 25.8707C147.773 25.4039 147.554 24.7619 147.554 23.9303L147.51 9.50098H139.735V24.0178C139.735 26.9358 140.524 29.1243 142.088 30.5978C143.652 32.0714 145.888 32.8009 148.796 32.8009C149.863 32.8009 150.871 32.6842 151.821 32.4653C152.771 32.2319 153.868 31.9109 154.525 31.4878L152.581 25.8416Z" fill="white"/>
<path d="M143.622 7.99822C145.566 7.99822 147.13 6.42252 147.13 4.49667C147.13 2.55623 145.552 0.995117 143.622 0.995117C141.679 0.995117 140.115 2.57082 140.115 4.49667C140.1 6.42252 141.679 7.99822 143.622 7.99822Z" fill="white"/>
</g>
<defs>
<clipPath id="clip0_207_1334">
<rect width="258" height="32.0392" fill="white" transform="translate(0 0.980469)"/>
</clipPath>
</defs>
</svg>
