<svg width="40" height="40" viewBox="0 0 40 40" fill="none" xmlns="http://www.w3.org/2000/svg">
<mask id="mask0_256_1232" style="mask-type:alpha" maskUnits="userSpaceOnUse" x="1" y="8" width="38" height="25">
<path fill-rule="evenodd" clip-rule="evenodd" d="M11.6375 8.34761C10.6877 8.43925 9.81961 8.68874 8.97685 9.11224C5.62334 10.7975 2.93849 15.1336 2.00821 20.3669C1.83945 21.3162 1.74565 22.1293 1.68766 23.145C1.64719 23.8542 1.66897 25.2771 1.72849 25.8097C1.97576 28.0225 2.66831 29.7052 3.8252 30.9041C4.49942 31.6028 5.25065 32.0781 6.15355 32.3772C6.8568 32.6102 7.49128 32.7066 8.32157 32.7065C9.91396 32.7063 11.0794 32.3014 12.3121 31.3201C12.8878 30.8618 13.7671 29.9219 14.4147 29.0727C15.5628 27.5669 16.3068 26.362 18.6925 22.145L20.0056 19.8238L20.2909 20.2941C20.6611 20.9044 21.9813 23.1083 22.7818 24.4524C24.7827 27.8121 25.944 29.4511 27.1935 30.6788C28.437 31.9006 29.5932 32.486 31.1177 32.6655C31.5257 32.7136 32.3654 32.7198 32.7529 32.6777C33.8075 32.563 34.752 32.2025 35.5314 31.6172C35.7943 31.4198 36.284 30.9447 36.5007 30.6767C37.3903 29.5768 37.9887 27.9996 38.217 26.1525C38.3901 24.7521 38.3698 22.9885 38.1612 21.2991C37.558 16.4131 35.4258 12.1505 32.4745 9.93048C30.704 8.59864 28.6838 8.07358 26.7961 8.45461C24.8139 8.85469 22.8871 10.334 20.8336 13.0321C20.6844 13.2281 20.5473 13.4051 20.529 13.4253C20.502 13.4552 20.4385 13.3913 20.1914 13.0857C17.5026 9.75886 15.0772 8.30942 12.2405 8.33396C11.9616 8.33637 11.6902 8.34251 11.6375 8.34761ZM28.5731 11.5507C29.5317 11.7643 30.4024 12.2892 31.2476 13.163C31.8193 13.7539 32.2732 14.3758 32.7131 15.1708C33.8798 17.2796 34.5578 19.771 34.7985 22.8347C34.8519 23.5137 34.8439 25.2105 34.7852 25.6452C34.5462 27.4174 33.8874 28.3972 32.7443 28.6811C32.4207 28.7614 31.8121 28.7669 31.4916 28.6924C30.6425 28.4949 30.0448 27.9946 29.0307 26.6323C28.2944 25.6432 26.7229 23.1688 24.9556 20.2161C23.6122 17.9716 23.16 17.2427 22.483 16.2311L22.2934 15.9479L22.6073 15.4771C24.2065 13.0785 25.5829 11.8483 27.0132 11.5394C27.2368 11.4911 27.3449 11.4851 27.8195 11.4943C28.1965 11.5015 28.4318 11.5192 28.5731 11.5507ZM12.761 12.3634C13.8351 12.5125 14.7502 13.0344 15.8317 14.1145C16.4721 14.7542 17.0869 15.4969 17.8201 16.5169L18.1292 16.9468L18.0389 17.087C17.9893 17.1642 17.6365 17.7085 17.255 18.2967C16.3241 19.732 15.4992 21.0168 14.5967 22.4371C13.6242 23.9674 13.3696 24.3566 12.8209 25.1516C11.255 27.4206 10.3272 28.3448 9.32672 28.6324C8.56497 28.8513 7.78141 28.7706 7.16624 28.4099C6.93783 28.2759 6.56237 27.9079 6.39052 27.6494C6.01245 27.0809 5.76677 26.3103 5.65971 25.3573C5.61534 24.9624 5.61553 23.6544 5.66006 23.0951C5.96696 19.2395 7.29619 15.7288 9.18312 13.79C10.059 12.8901 10.8714 12.4443 11.8567 12.323C11.993 12.3062 12.5182 12.3297 12.761 12.3634Z" fill="#A24DE8"/>
</mask>
<g mask="url(#mask0_256_1232)">
<rect width="40" height="40" fill="#A24DE8"/>
</g>
</svg>
