<svg width="24" height="24" viewBox="0 0 24 24" fill="none" xmlns="http://www.w3.org/2000/svg">
<mask id="mask0_216_4195" style="mask-type:alpha" maskUnits="userSpaceOnUse" x="5" y="8" width="14" height="8">
<path d="M6.64018 8.73178C6.21591 8.37821 5.58534 8.43554 5.23178 8.85982C4.87821 9.28409 4.93554 9.91466 5.35982 10.2682L6.64018 8.73178ZM12 14.5L11.3598 15.2682C11.7307 15.5773 12.2693 15.5773 12.6402 15.2682L12 14.5ZM18.6402 10.2682C19.0645 9.91466 19.1218 9.28409 18.7682 8.85982C18.4147 8.43554 17.7841 8.37821 17.3598 8.73178L18.6402 10.2682ZM5.35982 10.2682L11.3598 15.2682L12.6402 13.7318L6.64018 8.73178L5.35982 10.2682ZM12.6402 15.2682L18.6402 10.2682L17.3598 8.73178L11.3598 13.7318L12.6402 15.2682Z" fill="#140E17"/>
</mask>
<g mask="url(#mask0_216_4195)">
<rect width="24" height="24" fill="#140E17"/>
</g>
</svg>
